<svg width="97.92" height="21.6" viewBox="0 0 97.92 21.6" xmlns="http://www.w3.org/2000/svg"><g id="svgGroup" stroke-linecap="round" fill-rule="evenodd" font-size="9pt" stroke="#ffffff" stroke-width="0.25mm" fill="#ffffff" style="stroke:#ffffff;stroke-width:0.25mm;fill:#ffffff"><path d="M 9.24 21.24 L 5.7 21.24 L 0 0.93 L 2.82 0.03 L 7.56 18.21 L 12.03 2.43 L 15.6 2.43 L 20.04 18.21 L 24.75 0.12 L 27.39 0.93 L 21.72 21.24 L 18.18 21.24 L 13.74 5.46 L 9.24 21.24 Z M 64.14 20.34 L 61.47 21.6 L 58.86 15.9 Q 58.078 14.218 56.978 13.303 A 4.863 4.863 0 0 0 56.37 12.87 Q 55.063 12.086 53.119 11.985 A 11.354 11.354 0 0 0 52.53 11.97 L 52.08 11.97 L 52.08 21.24 L 49.23 21.24 L 49.23 0.3 A 74.37 74.37 0 0 1 51.539 0.117 A 64.733 64.733 0 0 1 52.275 0.075 A 56.382 56.382 0 0 1 54.17 0.011 A 67.881 67.881 0 0 1 55.38 0 Q 59.22 0 61.155 1.56 A 5.224 5.224 0 0 1 62.544 3.22 Q 63.088 4.269 63.09 5.57 A 6.198 6.198 0 0 1 63.09 5.58 A 5.964 5.964 0 0 1 62.895 7.146 A 4.402 4.402 0 0 1 61.785 9.105 Q 60.697 10.219 58.805 10.862 A 12.443 12.443 0 0 1 58.02 11.1 A 7.097 7.097 0 0 1 59.049 11.659 A 6.128 6.128 0 0 1 59.46 11.955 Q 60.051 12.419 60.602 13.173 A 8.789 8.789 0 0 1 60.675 13.275 Q 61.117 13.899 61.568 14.805 A 19.555 19.555 0 0 1 61.86 15.42 L 64.14 20.34 Z M 46.23 20.49 L 43.62 21.54 L 41.28 15.54 L 31.56 15.54 L 29.22 21.48 L 26.79 20.49 L 35.01 0.24 L 38.13 0.24 L 46.23 20.49 Z M 97.92 21.24 L 87.36 21.24 L 87.36 18.84 L 91.65 18.84 L 91.65 3.69 L 87.63 6.72 L 86.16 4.71 L 92.37 0.24 L 94.35 0.24 L 94.35 18.84 L 97.92 18.84 L 97.92 21.24 Z M 36.42 3.06 L 32.46 13.14 L 40.35 13.14 L 36.42 3.06 Z M 52.08 2.52 L 52.08 9.57 L 55.38 9.57 Q 57.177 9.57 58.413 8.906 A 4.485 4.485 0 0 0 58.89 8.61 A 3.086 3.086 0 0 0 60.212 6.353 A 4.354 4.354 0 0 0 60.24 5.85 A 2.943 2.943 0 0 0 59.258 3.611 A 3.982 3.982 0 0 0 58.98 3.375 A 4.177 4.177 0 0 0 57.671 2.709 Q 57.092 2.526 56.393 2.451 A 9.583 9.583 0 0 0 55.38 2.4 Q 54.428 2.4 53.659 2.426 A 35.683 35.683 0 0 0 53.55 2.43 Q 52.74 2.46 52.08 2.52 Z M 79.14 12.18 L 68.94 12.18 L 68.94 9.72 L 79.14 9.72 L 79.14 12.18 Z"/></g></svg>